<svg xmlns="http://www.w3.org/2000/svg" xmlns:xlink="http://www.w3.org/1999/xlink" width="26.114" height="26.114" viewBox="0 0 26.114 26.114"><defs><clipPath id="a"><circle cx="13.057" cy="13.057" r="13.057" transform="translate(0 0)" fill="#2a2a2a" stroke="#95989a" stroke-width="1"/></clipPath></defs><g transform="translate(0 0)" clip-path="url(#a)"><path d="M8.529,26.363h3.927v-11.8H8.529Zm4.182-15.437A2.009,2.009,0,0,0,12.1,9.464a2.172,2.172,0,0,0-1.581-.578,2.263,2.263,0,0,0-1.607.578,1.912,1.912,0,0,0-.621,1.462,1.946,1.946,0,0,0,.6,1.454,2.161,2.161,0,0,0,1.573.587h.017A2.237,2.237,0,0,0,12.1,12.38,1.932,1.932,0,0,0,12.712,10.926Zm9.946,15.437h3.927V19.6a5.646,5.646,0,0,0-1.241-3.961,4.256,4.256,0,0,0-3.281-1.343,3.953,3.953,0,0,0-3.553,1.989h.034V14.565H14.616q.051,1.122,0,11.8h3.927v-6.6a2.812,2.812,0,0,1,.119-.952,2.624,2.624,0,0,1,.765-1.012,1.924,1.924,0,0,1,1.258-.417q1.972,0,1.972,2.669ZM30.614,9.4V25.717a4.9,4.9,0,0,1-4.9,4.9H9.4a4.716,4.716,0,0,1-3.46-1.437A4.716,4.716,0,0,1,4.5,25.717V9.4a4.716,4.716,0,0,1,1.437-3.46A4.716,4.716,0,0,1,9.4,4.5H25.717a4.716,4.716,0,0,1,3.46,1.437A4.716,4.716,0,0,1,30.614,9.4Z" transform="translate(-4.5 -4.5)" fill="#2a2a2a"/></g></svg>