<svg xmlns="http://www.w3.org/2000/svg" xmlns:xlink="http://www.w3.org/1999/xlink" width="26.114" height="26.114" viewBox="0 0 26.114 26.114"><defs><clipPath id="a"><circle cx="13.057" cy="13.057" r="13.057" transform="translate(0 0)" fill="#2a2a2a" stroke="#95989a" stroke-width="1"/></clipPath></defs><g transform="translate(0 0)" clip-path="url(#a)"><path d="M25.717,4.5a4.716,4.716,0,0,1,3.46,1.437A4.716,4.716,0,0,1,30.614,9.4V25.717a4.9,4.9,0,0,1-4.9,4.9H9.4a4.716,4.716,0,0,1-3.46-1.437A4.716,4.716,0,0,1,4.5,25.717V9.4a4.716,4.716,0,0,1,1.437-3.46A4.716,4.716,0,0,1,9.4,4.5Zm.544,17.953V15.041a4.79,4.79,0,0,1-1.088.935q-.578.374-2.253,1.445T20.345,19.1a5.24,5.24,0,0,1-2.788,1.173A5.24,5.24,0,0,1,14.769,19.1q-.782-.544-2.406-1.573T9.94,15.959a5.351,5.351,0,0,1-.561-.459q-.357-.323-.527-.459v7.413a1.625,1.625,0,0,0,1.632,1.632H24.629a1.625,1.625,0,0,0,1.632-1.632Zm0-9.742a1.667,1.667,0,0,0-.468-1.19,1.539,1.539,0,0,0-1.165-.493H10.484a1.625,1.625,0,0,0-1.632,1.632,2.148,2.148,0,0,0,.519,1.3,4.976,4.976,0,0,0,1.148,1.1q.8.544,2.338,1.513t2.2,1.411l.289.2q.238.162.357.238t.357.221q.238.145.4.221t.366.162a2.519,2.519,0,0,0,.383.128,1.45,1.45,0,0,0,.7,0,2.519,2.519,0,0,0,.383-.128q.2-.085.366-.162t.4-.221q.238-.145.357-.221t.357-.238l.289-.2L24.6,15.024a4.929,4.929,0,0,0,1.131-1.063A2.063,2.063,0,0,0,26.261,12.712Z" transform="translate(-4.5 -4.5)" fill="#2a2a2a"/></g></svg>