<svg xmlns="http://www.w3.org/2000/svg" xmlns:xlink="http://www.w3.org/1999/xlink" width="26.114" height="26.114" viewBox="0 0 26.114 26.114"><defs><clipPath id="a"><circle cx="13.057" cy="13.057" r="13.057" transform="translate(0 0)" fill="#2a2a2a"/></clipPath></defs><g transform="translate(0 0)" clip-path="url(#a)"><path d="M29.169,4.5a1.451,1.451,0,0,1,1.445,1.445V29.169a1.451,1.451,0,0,1-1.445,1.445H22.521V20.5H25.9l.51-3.944H22.521V14.038a2.179,2.179,0,0,1,.4-1.428,1.983,1.983,0,0,1,1.556-.476l2.074-.017V8.6a22.79,22.79,0,0,0-3.026-.153,5.05,5.05,0,0,0-3.7,1.36,5.14,5.14,0,0,0-1.386,3.842v2.907h-3.4V20.5h3.4V30.614H5.945A1.451,1.451,0,0,1,4.5,29.169V5.945A1.451,1.451,0,0,1,5.945,4.5Z" transform="translate(-4.5 -4.5)" fill="#2a2a2a"/></g></svg>