<svg xmlns="http://www.w3.org/2000/svg" xmlns:xlink="http://www.w3.org/1999/xlink" width="26.114" height="26.114" viewBox="0 0 26.114 26.114"><defs><clipPath id="a"><circle cx="13.057" cy="13.057" r="13.057" transform="translate(0 0)" fill="#2a2a2a" stroke="#95989a" stroke-width="1"/></clipPath></defs><g transform="translate(0 0)" clip-path="url(#a)"><path d="M26.261,12.695a7.564,7.564,0,0,1-2.057.578,3.47,3.47,0,0,0,1.581-1.989,7.1,7.1,0,0,1-2.278.867,3.393,3.393,0,0,0-2.6-1.122,3.57,3.57,0,0,0-3.57,3.57,3.276,3.276,0,0,0,.085.816,10.218,10.218,0,0,1-7.378-3.74,3.536,3.536,0,0,0-.493,1.8A3.367,3.367,0,0,0,11.1,16.452a4.211,4.211,0,0,1-1.7-.442v.034a3.4,3.4,0,0,0,.85,2.27,3.571,3.571,0,0,0,2.091,1.233,3.316,3.316,0,0,1-.867.136,4.788,4.788,0,0,1-.663-.068,3.629,3.629,0,0,0,1.267,1.768,3.393,3.393,0,0,0,2.066.714A7.054,7.054,0,0,1,9.7,23.626a6.853,6.853,0,0,1-.85-.051,10.015,10.015,0,0,0,5.474,1.6,10.4,10.4,0,0,0,3.57-.6,9.2,9.2,0,0,0,2.856-1.615A10.722,10.722,0,0,0,22.8,20.626a10.288,10.288,0,0,0,1.692-5.619,4.533,4.533,0,0,0-.017-.459A6.939,6.939,0,0,0,26.261,12.695Zm4.352-3.3V25.717a4.9,4.9,0,0,1-4.9,4.9H9.4a4.716,4.716,0,0,1-3.46-1.437A4.716,4.716,0,0,1,4.5,25.717V9.4a4.716,4.716,0,0,1,1.437-3.46A4.716,4.716,0,0,1,9.4,4.5H25.717a4.716,4.716,0,0,1,3.46,1.437A4.716,4.716,0,0,1,30.614,9.4Z" transform="translate(-4.5 -4.5)" fill="#2a2a2a"/></g></svg>